<svg id="__tmb-6549" xmlns="http://www.w3.org/2000/svg" viewBox="0 0 512 512" style="opacity: 1; transition: opacity 0.3s ease 0s; overflow: visible;"><rect x="0" y="0" width="512" height="512" fill="none"></rect><rect fill="none" viewBox="0 0 512 512" style="overflow: visible;"></rect><svg xmlns="http://www.w3.org/2000/svg" viewBox="0 0 512 512" data-id="$$debug" style="max-width: 100%; max-height: 100%; overflow: visible;" visibility="visible"><rect fill="none" width="100%" height="100%" data-fl-background="" x="0" y="0"></rect><g data-icon="" transform="matrix(0.47361302375793457, 0, 0, 0.47361302375793457, 134.75531005859375, 32)"><svg id="uf3fa67eef_2211" enable-background="new 0 0 512.141 512.141" height="512" viewBox="0 0 512.141 512.141" width="512" xmlns="http://www.w3.org/2000/svg"><path d="m341.362 350.75v-178.417l91.236 14.894 27.706 125.915z" fill="#edc0c7"></path><path d="m18.876 91.679h204.702v411.465h-204.702z" fill="#909ba6"></path><path d="m18.876 15.052h194.666v74.323h-194.666z" fill="#dce6eb"></path><path d="m117.38 15.052h96.163v74.323h-96.163z" fill="#c8d2dc"></path><path d="m92.32 0v30h112.369v44.375h-110.369v30h110.369v392.766h30v-497.141z" fill="#4e5a61"></path><path d="m6.975 177h303.809v147.076h-303.809z" fill="#f1ced3"></path><path d="m220.418 429.371c0 29.168-23.645 52.813-52.813 52.813s-52.813-23.645-52.813-52.813c0 29.168-23.645 52.813-52.813 52.813s-52.811-23.645-52.811-52.813v-21.514h422.569v21.514c0 29.168-23.645 52.813-52.813 52.813s-52.813-23.645-52.813-52.813c0 29.168-23.645 52.813-52.813 52.813s-52.813-23.645-52.813-52.813z" fill="#09607d"></path><path d="m256.834 407.857v71.695c5.183 1.7 10.714 2.631 16.465 2.631 29.168 0 52.813-23.645 52.813-52.813 0 29.168 23.645 52.813 52.813 52.813s52.813-23.645 52.813-52.813v-21.514h-174.904z" fill="#07485e"></path><path d="m460.304 313.142h-98.942v-125.915h71.237l-6.601-30h-419.023v30h64.265v125.914h-64.265v107.164h446.742l9.883-92.186zm-357.961-125.915h80.097v125.914h-80.097zm191.296 125.915h-80.097v-125.915h80.097z" fill="#b40042"></path><path d="m256.834 182.333h44.9v135.702h-44.9z" fill="#edc0c7"></path><path d="m460.304 313.142h-98.943v-125.915h71.237l-6.601-30h-169.163v30h36.805v125.915h-36.805v107.163h196.883l9.883-92.185z" fill="#920035"></path><path d="m449.117 72-31.047-31.047v16.047h-75v30h75v16.047z" fill="#c9001c"></path><path d="m410.889 388.694h46.217l3.334-31.103h-49.551z" fill="#f1ced3"></path><path d="m30.07 482.141v-377.766h87.31v-30h-87.31v-44.375h87.31v-30h-117.31v482.141 29.859.141h512v-30z" fill="#6e7b85"></path><path d="m256.834 482.141h255.236v30h-255.236z" fill="#4e5a61"></path></svg></g><path text-anchor="middle" offset="0.5" fill="#09607d" space="preserve" font-scale="contain" font-size="48" font-family="Roboto Slab" text="Reservation" font-style="normal" font-weight="700" data-fl-textpath="" transform="matrix(1.8944519758224487, 0, 0, 1.8944519758224487, 255.4849395751953, 385.5426330566406)" d="M-130.90546875-34.13L-119.21546875-34.13Q-113.40546875-34.13 -110.09546875-31.46Q-106.79546875-28.8 -106.79546875-24.12L-106.79546875-24.12Q-106.79546875-21.54 -108.17546875-19.64Q-109.55546875-17.74 -112.22546875-16.57L-112.22546875-16.57Q-109.20546875-15.68 -107.88546875-13.61Q-106.55546875-11.53 -106.55546875-8.46L-106.55546875-8.46L-106.55546875-6.73Q-106.55546875-5.6 -106.11546875-4.98Q-105.66546875-4.36 -104.63546875-4.24L-104.63546875-4.24L-103.79546875-4.13L-103.79546875 0L-107.33546875 0Q-110.68546875 0 -112.04546875-1.8Q-113.40546875-3.61 -113.40546875-6.47L-113.40546875-6.47L-113.40546875-8.41Q-113.40546875-10.9 -114.72546875-12.32Q-116.05546875-13.73 -118.46546875-13.8L-118.46546875-13.8L-124.06546875000001-13.8L-124.06546875000001-4.8L-120.40546875-4.1L-120.40546875 0L-134.54546875 0L-134.54546875-4.1L-130.90546875-4.8L-130.90546875-29.3L-134.54546875-30L-134.54546875-34.13L-130.90546875-34.13ZM-124.06546875000001-28.85L-124.06546875000001-19.08L-119.33546875-19.08Q-116.47546875-19.08 -115.04546875-20.3Q-113.61546875-21.52 -113.61546875-23.81L-113.61546875-23.81Q-113.61546875-26.11 -115.03546875-27.48Q-116.44546875-28.85 -119.21546875-28.85L-119.21546875-28.85L-124.06546875000001-28.85ZM-89.23546875 0.49L-89.23546875 0.49Q-94.72546875 0.49 -98.00546875-3.02Q-101.28546875-6.54 -101.28546875-11.95L-101.28546875-11.95L-101.28546875-12.89Q-101.28546875-18.54 -98.17546875-22.2Q-95.07546875-25.85 -89.84546875-25.83L-89.84546875-25.83Q-84.71546875-25.83 -81.87546875-22.73Q-79.04546875-19.64 -79.04546875-14.37L-79.04546875-14.37L-79.04546875-10.64L-94.18546875-10.64L-94.22546875-10.5Q-94.04546875-7.99 -92.55546875-6.38Q-91.06546875000001-4.76 -88.51546875-4.76L-88.51546875-4.76Q-86.23546875-4.76 -84.73546875-5.21Q-83.23546875-5.67 -81.45546875-6.66L-81.45546875-6.66L-79.60546875-2.44Q-81.17546875-1.2 -83.67546875-0.35Q-86.16546875 0.49 -89.23546875 0.49ZM-89.84546875-20.55L-89.84546875-20.55Q-91.74546875-20.55 -92.84546875-19.1Q-93.94546875-17.65 -94.20546875-15.28L-94.20546875-15.28L-94.13546875-15.16L-85.74546875-15.16L-85.74546875-15.77Q-85.74546875-17.95 -86.76546875-19.25Q-87.78546875-20.55 -89.84546875-20.55ZM-55.18515625-22.95L-55.11515625-16.64L-59.70515625-16.64L-60.43515625-19.8Q-61.13515625-20.37 -62.20515625-20.74Q-63.265156250000004-21.12 -64.55515625-21.12L-64.55515625-21.12Q-66.36515625-21.12 -67.41515625-20.31Q-68.47515625-19.5 -68.47515625-18.28L-68.47515625-18.28Q-68.47515625-17.13 -67.46515625-16.37Q-66.45515625-15.61 -63.43515625-15.02L-63.43515625-15.02Q-58.72515625-14.09 -56.44515625-12.27Q-54.17515625-10.45 -54.17515625-7.27L-54.17515625-7.27Q-54.17515625-3.84 -57.11515625-1.68Q-60.055156249999996 0.49 -64.86515625 0.49L-64.86515625 0.49Q-67.79515625 0.49 -70.24515625-0.36Q-72.69515625-1.22 -74.58515625-2.81L-74.58515625-2.81L-74.65515625-8.51L-69.87515625-8.51L-68.94515625-5.2Q-68.33515625-4.69 -67.27515625-4.44Q-66.22515625-4.2 -65.07515624999999-4.2L-65.07515624999999-4.2Q-62.98515625-4.2 -61.89515625-4.95Q-60.805156249999996-5.7 -60.805156249999996-6.98L-60.805156249999996-6.98Q-60.805156249999996-8.11 -61.90515625-8.93Q-63.015156250000004-9.75 -65.96515625-10.38L-65.96515625-10.38Q-70.44515625-11.3 -72.72515625-13.09Q-75.01515625-14.88 -75.01515625-17.98L-75.01515625-17.98Q-75.01515625-21.16 -72.38515625-23.47Q-69.76515625-25.78 -64.90515625-25.78L-64.90515625-25.78Q-61.95515625-25.78 -59.32515625-24.98Q-56.68515625-24.19 -55.18515625-22.95L-55.18515625-22.95ZM-38.96203125 0.49L-38.96203125 0.49Q-44.45203125 0.49 -47.73203125-3.02Q-51.01203125-6.54 -51.01203125-11.95L-51.01203125-11.95L-51.01203125-12.89Q-51.01203125-18.54 -47.90203125-22.2Q-44.80203125-25.85 -39.57203125-25.83L-39.57203125-25.83Q-34.44203125-25.83 -31.60203125-22.73Q-28.77203125-19.64 -28.77203125-14.37L-28.77203125-14.37L-28.77203125-10.64L-43.91203125-10.64L-43.95203125-10.5Q-43.77203125-7.99 -42.28203125-6.38Q-40.79203125-4.76 -38.24203125-4.76L-38.24203125-4.76Q-35.962031249999995-4.76 -34.462031249999995-5.21Q-32.962031249999995-5.67 -31.18203125-6.66L-31.18203125-6.66L-29.33203125-2.44Q-30.90203125-1.2 -33.40203125-0.35Q-35.89203125 0.49 -38.96203125 0.49ZM-39.57203125-20.55L-39.57203125-20.55Q-41.47203125-20.55 -42.57203125-19.1Q-43.67203125-17.65 -43.93203125-15.28L-43.93203125-15.28L-43.86203125-15.16L-35.47203125-15.16L-35.47203125-15.77Q-35.47203125-17.95 -36.49203125-19.25Q-37.51203125-20.55 -39.57203125-20.55ZM-25.02171875 0L-25.02171875-4.1L-21.74171875-4.8L-21.74171875-20.53L-25.37171875-21.23L-25.37171875-25.36L-15.36171875-25.36L-15.06171875-21.66Q-14.17171875-23.63 -12.76171875-24.73Q-11.35171875-25.83 -9.501718749999998-25.83L-9.501718749999998-25.83Q-8.96171875-25.83 -8.37171875-25.75Q-7.771718750000002-25.66 -7.371718749999999-25.55L-7.371718749999999-25.55L-8.10171875-19.31L-10.911718749999999-19.38Q-12.41171875-19.38 -13.39171875-18.8Q-14.38171875-18.21 -14.89171875-17.13L-14.89171875-17.13L-14.89171875-4.8L-11.61171875-4.1L-11.61171875 0L-25.02171875 0ZM 5.84328125-25.36L 5.84328125-21.23L 3.45328125-20.79L 6.813281249999999-9.45L 7.253281250000001-7.05L 7.393281249999999-7.05L 7.88328125-9.45L 11.193281249999998-20.77L 8.75328125-21.23L 8.75328125-25.36L 20.26328125-25.36L 20.26328125-21.23L 18.06328125-20.88L 10.583281249999999 0L 4.04328125 0L-3.45671875-20.88L-5.65671875-21.23L-5.65671875-25.36L 5.84328125-25.36ZM 46.133281249999996 0L 38.243281249999995 0Q 37.95328125-0.63  37.743281249999995-1.3Q 37.53328125-1.97  37.41328125-2.65L 37.41328125-2.65Q 36.20328125-1.24  34.45328125-0.38Q 32.70328125 0.49  30.45328125 0.49L 30.45328125 0.49Q 26.73328125 0.49  24.54328125-1.54Q 22.34328125-3.56  22.34328125-7.05L 22.34328125-7.05Q 22.34328125-10.62  25.20328125-12.56Q 28.06328125-14.51  33.593281250000004-14.51L 33.593281250000004-14.51L 37.093281250000004-14.51L 37.093281250000004-16.99Q 37.093281250000004-18.82  36.03328125-19.83Q 34.98328125-20.84  32.91328125-20.84L 32.91328125-20.84Q 31.743281250000003-20.84  30.83328125-20.57Q 29.91328125-20.3  29.353281250000002-19.92L 29.353281250000002-19.92L 28.91328125-17.2L 23.75328125-17.2L 23.77328125-22.83Q 25.65328125-24.09  28.07328125-24.96Q 30.50328125-25.83  33.36328125-25.83L 33.36328125-25.83Q 38.07328125-25.83  41.01328125-23.52Q 43.95328125-21.21  43.95328125-16.95L 43.95328125-16.95L 43.95328125-6.47Q 43.95328125-5.88  43.97328125-5.37Q 43.983281250000005-4.85  44.05328125-4.38L 44.05328125-4.38L 46.133281249999996-4.1L 46.133281249999996 0ZM 32.31328125-4.57L 32.31328125-4.57Q 33.85328125-4.57  35.12328125-5.24Q 36.383281249999996-5.91  37.093281250000004-6.91L 37.093281250000004-6.91L 37.093281250000004-10.78L 33.593281250000004-10.78Q 31.41328125-10.78  30.29328125-9.76Q 29.16328125-8.74  29.16328125-7.31L 29.16328125-7.31Q 29.16328125-6.02  30.00328125-5.3Q 30.83328125-4.57  32.31328125-4.57ZM 49.86546875-31.57L 56.68546875-31.57L 56.68546875-25.36L 61.13546875-25.36L 61.13546875-20.55L 56.68546875-20.55L 56.68546875-7.64Q 56.68546875-6.16  57.29546875-5.53Q 57.90546875-4.9  58.93546875-4.9L 58.93546875-4.9Q 59.63546875-4.9  60.16546875-4.96Q 60.69546875-5.02  61.345468749999995-5.16L 61.345468749999995-5.16L 61.93546875-0.21Q 60.78546875 0.14  59.65546875 0.32Q 58.53546875 0.49  57.22546875 0.49L 57.22546875 0.49Q 53.68546875 0.49  51.77546875-1.45Q 49.86546875-3.4  49.86546875-7.62L 49.86546875-7.62L 49.86546875-20.55L 46.13546875-20.55L 46.13546875-25.36L 49.86546875-25.36L 49.86546875-31.57ZM 64.28171875 0L 64.28171875-4.1L 67.58171875-4.8L 67.58171875-20.53L 63.92171875-21.23L 63.92171875-25.36L 74.42171875-25.36L 74.42171875-4.8L 77.71171875-4.1L 77.71171875 0L 64.28171875 0ZM 74.42171875-36.56L 74.42171875-31.43L 67.58171875-31.43L 67.58171875-36.56L 74.42171875-36.56ZM 79.96046875-12.42L 79.96046875-12.91Q 79.96046875-18.59  83.13046875-22.21Q 86.31046875-25.83  91.91046875-25.83L 91.91046875-25.83Q 97.53046875-25.83  100.71046875-22.22Q 103.89046875-18.61  103.89046875-12.91L 103.89046875-12.91L 103.89046875-12.42Q 103.89046875-6.7  100.71046875-3.11Q 97.53046875 0.49  91.96046875 0.49L 91.96046875 0.49Q 86.31046875 0.49  83.13046875-3.11Q 79.96046875-6.7  79.96046875-12.42L 79.96046875-12.42ZM 86.80046875-12.91L 86.80046875-12.42Q 86.80046875-8.95  88.02046874999999-6.86Q 89.24046875-4.76  91.96046875-4.76L 91.96046875-4.76Q 94.61046875-4.76  95.84046875-6.87Q 97.07046875-8.98  97.07046875-12.42L 97.07046875-12.42L 97.07046875-12.91Q 97.07046875-16.29  95.82046875-18.42Q 94.58046875-20.55  91.91046875-20.55L 91.91046875-20.55Q 89.24046875-20.55  88.02046874999999-18.42Q 86.80046875-16.29  86.80046875-12.91L 86.80046875-12.91ZM 106.48671875 0L 106.48671875-4.1L 109.76671875-4.8L 109.76671875-20.53L 106.13671875-21.23L 106.13671875-25.36L 116.14671875-25.36L 116.44671875-21.73Q 117.71671875-23.67  119.56671875-24.75Q 121.41671875-25.83  123.71671875-25.83L 123.71671875-25.83Q 127.55671875-25.83  129.71671874999998-23.41Q 131.86671875-21  131.86671875-15.84L 131.86671875-15.84L 131.86671875-4.8L 135.15671875-4.1L 135.15671875 0L 122.07671875 0L 122.07671875-4.1L 125.00671875-4.8L 125.00671875-15.82Q 125.00671875-18.38  123.97671875-19.44Q 122.93671875-20.51  120.85671875-20.51L 120.85671875-20.51Q 119.49671875-20.51  118.41671875-19.96Q 117.33671875-19.41  116.61671875-18.4L 116.61671875-18.4L 116.61671875-4.8L 119.37671875-4.1L 119.37671875 0L 106.48671875 0Z"></path><path text-anchor="middle" offset="0.5" fill="#09607d" space="preserve" font-scale="contain" font-size="48" font-family="Roboto Slab" text="Railway" font-style="normal" font-weight="700" data-fl-textpath="" transform="matrix(1.8944519758224487, 0, 0, 1.8944519758224487, 256.4265441894531, 479.07171630859375)" d="M-86.5734375-34.13L-74.8834375-34.13Q-69.0734375-34.13 -65.7634375-31.46Q-62.4634375-28.8 -62.4634375-24.12L-62.4634375-24.12Q-62.4634375-21.54 -63.8434375-19.64Q-65.2234375-17.74 -67.8934375-16.57L-67.8934375-16.57Q-64.8734375-15.68 -63.5534375-13.61Q-62.2234375-11.53 -62.2234375-8.46L-62.2234375-8.46L-62.2234375-6.73Q-62.2234375-5.6 -61.783437500000005-4.98Q-61.3334375-4.36 -60.3034375-4.24L-60.3034375-4.24L-59.4634375-4.13L-59.4634375 0L-63.003437500000004 0Q-66.3534375 0 -67.7134375-1.8Q-69.0734375-3.61 -69.0734375-6.47L-69.0734375-6.47L-69.0734375-8.41Q-69.0734375-10.9 -70.3934375-12.32Q-71.7234375-13.73 -74.1334375-13.8L-74.1334375-13.8L-79.73343750000001-13.8L-79.73343750000001-4.8L-76.0734375-4.1L-76.0734375 0L-90.2134375 0L-90.2134375-4.1L-86.5734375-4.8L-86.5734375-29.3L-90.2134375-30L-90.2134375-34.13L-86.5734375-34.13ZM-79.73343750000001-28.85L-79.73343750000001-19.08L-75.0034375-19.08Q-72.1434375-19.08 -70.7134375-20.3Q-69.2834375-21.52 -69.2834375-23.81L-69.2834375-23.81Q-69.2834375-26.11 -70.7034375-27.48Q-72.1134375-28.85 -74.8834375-28.85L-74.8834375-28.85L-79.73343750000001-28.85ZM-33.003437500000004 0L-40.893437500000005 0Q-41.1834375-0.63 -41.393437500000005-1.3Q-41.6034375-1.97 -41.7234375-2.65L-41.7234375-2.65Q-42.9334375-1.24 -44.6834375-0.38Q-46.4334375 0.49 -48.6834375 0.49L-48.6834375 0.49Q-52.4034375 0.49 -54.5934375-1.54Q-56.7934375-3.56 -56.7934375-7.05L-56.7934375-7.05Q-56.7934375-10.62 -53.9334375-12.56Q-51.0734375-14.51 -45.543437499999996-14.51L-45.543437499999996-14.51L-42.043437499999996-14.51L-42.043437499999996-16.99Q-42.043437499999996-18.82 -43.1034375-19.83Q-44.1534375-20.84 -46.2234375-20.84L-46.2234375-20.84Q-47.3934375-20.84 -48.3034375-20.57Q-49.2234375-20.3 -49.7834375-19.92L-49.7834375-19.92L-50.2234375-17.2L-55.3834375-17.2L-55.3634375-22.83Q-53.4834375-24.09 -51.0634375-24.96Q-48.6334375-25.83 -45.7734375-25.83L-45.7734375-25.83Q-41.0634375-25.83 -38.1234375-23.52Q-35.1834375-21.21 -35.1834375-16.95L-35.1834375-16.95L-35.1834375-6.47Q-35.1834375-5.88 -35.1634375-5.37Q-35.153437499999995-4.85 -35.0834375-4.38L-35.0834375-4.38L-33.003437500000004-4.1L-33.003437500000004 0ZM-46.8234375-4.57L-46.8234375-4.57Q-45.2834375-4.57 -44.0134375-5.24Q-42.753437500000004-5.91 -42.043437499999996-6.91L-42.043437499999996-6.91L-42.043437499999996-10.78L-45.543437499999996-10.78Q-47.7234375-10.78 -48.8434375-9.76Q-49.9734375-8.74 -49.9734375-7.31L-49.9734375-7.31Q-49.9734375-6.02 -49.1334375-5.3Q-48.3034375-4.57 -46.8234375-4.57ZM-30.88625 0L-30.88625-4.1L-27.58625-4.8L-27.58625-20.53L-31.24625-21.23L-31.24625-25.36L-20.74625-25.36L-20.74625-4.8L-17.45625-4.1L-17.45625 0L-30.88625 0ZM-20.74625-36.56L-20.74625-31.43L-27.58625-31.43L-27.58625-36.56L-20.74625-36.56ZM-12.2775-31.73L-15.9375-32.44L-15.9375-36.56L-5.4375-36.56L-5.4375-4.8L-2.1374999999999993-4.1L-2.1374999999999993 0L-15.5875 0L-15.5875-4.1L-12.2775-4.8L-12.2775-31.73ZM 36.2371875-25.36L 36.2371875-21.23L 33.6771875-20.91L 28.3871875 0L 22.6671875 0L 17.9571875-15.09L 17.8171875-15.09L 13.0971875 0L 7.407187499999999 0L 2.0871875-20.91L-0.47281249999999997-21.23L-0.47281249999999997-25.36L 11.0171875-25.36L 11.0171875-21.23L 8.3171875-20.72L 10.7071875-9.12L 10.8471875-9.12L 15.587187499999999-25.36L 20.1771875-25.36L 24.9571875-9.07L 25.0971875-9.07L 27.4671875-20.7L 24.7471875-21.23L 24.7471875-25.36L 36.2371875-25.36ZM 62.621562499999996 0L 54.731562499999995 0Q 54.4415625-0.63  54.231562499999995-1.3Q 54.0215625-1.97  53.9015625-2.65L 53.9015625-2.65Q 52.6915625-1.24  50.9415625-0.38Q 49.1915625 0.49  46.9415625 0.49L 46.9415625 0.49Q 43.2215625 0.49  41.0315625-1.54Q 38.8315625-3.56  38.8315625-7.05L 38.8315625-7.05Q 38.8315625-10.62  41.6915625-12.56Q 44.5515625-14.51  50.081562500000004-14.51L 50.081562500000004-14.51L 53.581562500000004-14.51L 53.581562500000004-16.99Q 53.581562500000004-18.82  52.5215625-19.83Q 51.4715625-20.84  49.4015625-20.84L 49.4015625-20.84Q 48.2315625-20.84  47.3215625-20.57Q 46.4015625-20.3  45.8415625-19.92L 45.8415625-19.92L 45.4015625-17.2L 40.2415625-17.2L 40.2615625-22.83Q 42.1415625-24.09  44.5615625-24.96Q 46.9915625-25.83  49.8515625-25.83L 49.8515625-25.83Q 54.5615625-25.83  57.5015625-23.52Q 60.4415625-21.21  60.4415625-16.95L 60.4415625-16.95L 60.4415625-6.47Q 60.4415625-5.88  60.4615625-5.37Q 60.471562500000005-4.85  60.5415625-4.38L 60.5415625-4.38L 62.621562499999996-4.1L 62.621562499999996 0ZM 48.8015625-4.57L 48.8015625-4.57Q 50.3415625-4.57  51.6115625-5.24Q 52.871562499999996-5.91  53.581562500000004-6.91L 53.581562500000004-6.91L 53.581562500000004-10.78L 50.081562500000004-10.78Q 47.9015625-10.78  46.7815625-9.76Q 45.6515625-8.74  45.6515625-7.31L 45.6515625-7.31Q 45.6515625-6.02  46.4915625-5.3Q 47.3215625-4.57  48.8015625-4.57ZM 90.8471875-25.36L 90.8471875-21.23L 88.4771875-20.88L 79.1471875 3.8Q 78.0471875 6.54  76.2071875 8.39Q 74.3671875 10.24  70.6671875 10.24L 70.6671875 10.24Q 69.7971875 10.24  69.0371875 10.1Q 68.2771875 9.96  67.2471875 9.7L 67.2471875 9.7L 68.0371875 4.71Q 68.3671875 4.76  68.7171875 4.8Q 69.0671875 4.85  69.3271875 4.85L 69.3271875 4.85Q 71.0371875 4.85  71.9571875 4.02Q 72.8671875 3.19  73.3571875 1.95L 73.3571875 1.95L 74.1371875 0.02L 66.0971875-20.86L 63.7271875-21.23L 63.7271875-25.36L 76.1471875-25.36L 76.1471875-21.23L 73.3171875-20.77L 76.7771875-10.64L 77.1371875-8.81L 77.2771875-8.79L 81.2771875-20.77L 78.4171875-21.23L 78.4171875-25.36L 90.8471875-25.36Z"></path></svg></svg>